<svg id="Layer_1" data-name="Layer 1" xmlns="http://www.w3.org/2000/svg" viewBox="0 0 600 600"><path d="M301,120.89c8.23,3.83,12.92,10.76,16,18.86,9.09,23.83,9.12,48.06,3.29,72.66-1.66,7-1.87,14.32-2.8,22,37,4.37,69.13,17.82,98.4,40.84,4.94-6.21,10.25-11.74,14.22-18.1,13.08-21,29.61-38.14,52.42-48.35a47.77,47.77,0,0,1,16.33-3.88c9.67-.59,15.76,5.42,14.81,15.09a58.83,58.83,0,0,1-5.47,19.49c-10.17,21-26.25,36.57-45.77,49-6.51,4.14-12.41,9.23-19,14.19,22.89,29.16,36.47,61,40.88,98.09,7-.56,14.25-.15,21-1.84,23.5-5.91,46.79-6.37,69.94,1.09,9.64,3.12,18.53,7.67,22.77,17.89v6c-7.89,14.19-22,18-36.22,20.83A124.93,124.93,0,0,1,503,442.05c-5.74-1.61-12.11-1-18.58-1.41C480,477,466.8,509.07,443.75,538.29c5.58,4.69,10.59,10.12,16.67,13.78,20.48,12.3,37.2,28.14,48,49.56a55.73,55.73,0,0,1,5.49,19.46c1,10.4-6.23,17-16.57,15.2A71.87,71.87,0,0,1,475.75,629c-20.22-11-35.54-27.09-47.13-47-3.27-5.64-8.33-10.23-12.84-15.61-28.91,22.72-61,36.27-98,40.65.81,7.65.77,15.2,2.5,22.32,5.55,22.86,5.81,45.48-1.27,68a71.69,71.69,0,0,1-4.81,10.93A24.24,24.24,0,0,1,300,720.89h-4c-8.8-3.63-13.71-10.79-16.92-19.22-9-23.65-9.1-47.71-3.36-72.14,1.68-7.15,2-14.63,3-22.4-37-4.42-69.16-17.73-98.45-40.92-4.95,6.28-10.33,11.95-14.38,18.44-12.35,19.77-27.93,36.05-48.9,46.55a55.59,55.59,0,0,1-17.49,5.43c-11.79,1.52-19-6.19-16.91-17.86a64.78,64.78,0,0,1,5.84-17.9c10.54-20.49,26.38-36.06,45.91-48.18,6.38-4,12-9.13,18.31-14-23.09-29.27-36.51-61.39-40.91-98.4-7.68.87-15.2.95-22.32,2.66-23.71,5.7-47.13,5.89-70.32-2.12-9-3.1-16.77-7.92-21.08-16.95v-5C1.24,410,8.37,405.21,16.62,402c23.76-9.28,48-9.29,72.63-3.65,7.17,1.65,14.65,2,22.45,3,4.43-37,17.77-69.17,40.92-98.42-6.46-5.05-12.3-10.47-18.93-14.64C114.26,276,98.11,260.69,87.86,240a60.08,60.08,0,0,1-5.64-20.42c-.88-9,5.36-15.22,14.44-14.41a58.85,58.85,0,0,1,20,5.37c21.12,10.19,36.85,26.4,49.3,46.11,4,6.38,9.07,12.11,14,18.64,29.28-22.86,61.3-36.52,98.34-40.84-.7-7.24-.52-14.46-2.19-21.24-6.15-25.05-6.48-49.75,2.88-74.08,3.06-7.93,7.64-14.8,16-18.24ZM297.73,598c97.79.2,177.08-78.81,177.33-176.72S396.33,244.14,298.45,243.83A177.09,177.09,0,1,0,297.73,598Z" transform="translate(2 -120.89)"/><path d="M297.74,591.46C203.36,591,127.23,514.7,127.42,420.82c.19-94.35,77.17-171,171-170.36,94.51.68,170.57,77.11,170,170.82C467.83,515.77,391.43,592,297.74,591.46ZM298,475a54.08,54.08,0,1,0-54.06-53.92A54,54,0,0,0,298,475Zm-79,53.7c17.94,12.89,37,21,58.69,24.24,0-17.69-.47-34.68.2-51.64.34-8.46-1-14.45-10.34-16-.32-.05-.63-.43-.9-.38-1.57.25-3.66,0-4.6,1C247.78,499.91,233.68,514.07,219,528.74Zm158,0c-12.83-12.81-25.38-24.78-37.21-37.42-5.24-5.6-9.55-8.36-17-3.82-3.16,1.92-4.57,3.21-4.54,6.91.19,17.82.08,35.65.1,53.48,0,1.59.17,3.17.29,5.14A132.93,132.93,0,0,0,377,528.73Zm-211.17-87.4c3.72,22,11.51,41.15,24.45,58.59,12.57-12.59,24.33-25.08,36.91-36.67,6.14-5.66,8.82-10.47,4-18.25-1.66-2.67-2.89-3.77-5.92-3.73-12.47.14-24.94.06-37.41.06Zm264.28,0c-17.76,0-34.88.42-52-.19-8.18-.29-13.9.74-15.85,10-.62,2.95-.85,4.59,1.38,6.79,12.81,12.59,25.44,25.35,38.15,38,1.23,1.23,2.55,2.39,4.07,3.82A133,133,0,0,0,430.11,441.33ZM190.19,342c-12.88,18-21,37-24.21,58.66,20.78,0,40.88,0,61-.09a4.49,4.49,0,0,0,3.29-2.07,60.43,60.43,0,0,0,4-9.64,4.48,4.48,0,0,0-1-3.71C219.08,370.82,204.83,356.62,190.19,342Zm239.94,58.67A132.15,132.15,0,0,0,405.76,342c-14.61,14.61-28.86,28.82-43,43.1a4.3,4.3,0,0,0-1.23,3.3c2.41,10.63,4.5,12.21,15.54,12.21ZM219,313.23c12.68,12.65,25.35,24.68,37.24,37.44,5.3,5.69,9.64,8.1,17,3.74,3.22-1.9,4.52-3.25,4.48-6.9-.17-17.8-.07-35.61-.09-53.41,0-1.61-.13-3.21-.22-5.2A131.74,131.74,0,0,0,219,313.23Zm99.32-24.09v5.75c0,15.31.46,30.63-.19,45.91-.35,8.21.81,13.87,10,15.83,2.91.62,4.58,1,6.81-1.3,11.41-11.65,23-23.13,34.53-34.64,2.43-2.41,5-4.66,7.55-7C363.58,302.06,337.41,291.15,318.32,289.14Z" transform="translate(2 -120.89)"/><path d="M297.85,467A46,46,0,1,1,344,421.18,45.8,45.8,0,0,1,297.85,467Z" transform="translate(2 -120.89)"/></svg>