<svg id="Layer_2" data-name="Layer 2" xmlns="http://www.w3.org/2000/svg" viewBox="0 0 433.37 266.86"><defs><style>.cls-1,.cls-2{fill:none;stroke:#000;stroke-miterlimit:10;}.cls-1{stroke-width:16px;}.cls-2{stroke-width:15.37px;}</style></defs><path class="cls-1" d="M240,219.92s-5.94-68.78,0-81.35,20-41.67,58.58-42.66,59.79,36.71,62,59.19-9.06,144.19-9.06,144.19H246.2Z" transform="translate(-86.15 -40.43)"/><circle class="cls-1" cx="211.49" cy="123.86" r="27.36"/><path class="cls-2" d="M241,228.64s-51.87,3.69-55.53,1.53-38.18-20.52-44.49-40-3-65.88-3-65.88h-34.2v53.26s4,56.9,39.51,81.38,101.6,23.32,101.6,23.32" transform="translate(-86.15 -40.43)"/><path class="cls-1" d="M108.08,50.89s-13.32.72-13.68,12.6,0,48.6,0,48.6-2.88,12.24,10.8,12.24h28.08s15.48.72,16.2-10.8,0-52.56,0-52.56-.72-9.36-11.88-10.08S108.08,50.89,108.08,50.89Z" transform="translate(-86.15 -40.43)"/><path class="cls-1" d="M192.32,87.45s-2.24,22.12-42.52,18.88l-.24-40S189.8,60.3,192.32,87.45Z" transform="translate(-86.15 -40.43)"/><path class="cls-2" d="M364.69,226.5s51.88,3.69,55.53,1.53,38.19-20.52,44.5-40,3-65.88,3-65.88h34.2v53.26s-4,56.9-39.52,81.38S360.8,280.14,360.8,280.14" transform="translate(-86.15 -40.43)"/><path class="cls-1" d="M497.59,48.75s13.32.72,13.68,12.6,0,48.6,0,48.6,2.88,12.24-10.8,12.24H472.39s-15.48.72-16.2-10.8,0-52.56,0-52.56.72-9.36,11.88-10.08S497.59,48.75,497.59,48.75Z" transform="translate(-86.15 -40.43)"/><path class="cls-1" d="M413.35,85.31s2.24,22.12,42.52,18.88l.23-40S415.87,58.16,413.35,85.31Z" transform="translate(-86.15 -40.43)"/></svg>