<?xml version="1.0" encoding="utf-8"?>
<!-- Generator: Adobe Illustrator 25.3.0, SVG Export Plug-In . SVG Version: 6.00 Build 0)  -->
<svg version="1.1" id="Layer_1" xmlns="http://www.w3.org/2000/svg" xmlns:xlink="http://www.w3.org/1999/xlink" x="0px" y="0px"
	 viewBox="0 0 1280 666" style="enable-background:new 0 0 1280 666;" xml:space="preserve">
<g transform="translate(0.000000,666.000000) scale(0.100000,-0.100000)">
	<path d="M6210.6,6660c-8,0-436-93-440-95c-1-1-43-132-91-291c-343-1116-451-1471-451-1482c0-8-17-12-47-12c-26,0-734,39-1573,86
		l-1525,86l-235-17c-541-38-789-82-960-171c-97-50-151-90-309-224c-88-75-140-109-241-161c-191-98-266-160-305-252
		c-8-20-20-81-27-136c-16-138,2-178,127-266c144-103,661-292,1010-370c128-28,236-34,1200-65c1494-48,2116-76,2265-100
		c30-5,129-34,220-65c187-64,467-138,583-154c43-6,118-11,167-11h88l330-272c182-150,329-274,328-275c-2-2-45,6-97,17
		c-374,77-588,97-684,63c-43-16-56-27-97-87c-58-84-79-166-80-315c-1-119,29-286,64-355c24-49,65-95,94-106c12-5,133-5,268,0
		c419,16,561,34,997,131l316,70l384-277c1371-990,2061-1471,2184-1524c70-30,146-36,199-16c43,17,120,88,114,106
		c-3,8-1566,1467-2212,2065l-227,210l-133,200c-127,189-238,366-233,371c1,1,43,7,92,13c50,6,128,17,175,25c147,26,537,56,1420,111
		c658,41,990,66,1120,86c128,19,1106,288,1344,369c50,16,95,30,102,30s205-94,441-209l429-209l243-32c133-17,245-29,248-26
		s1,11-5,18s-195,157-420,333l-410,320l58,33c77,43,125,98,144,163c18,60,21,200,6,230c-22,39-138,82-274,99c-44,5-81,12-83,14
		c-3,3,125,269,759,1579c71,148,127,271,124,274c-5,5-382,58-462,65c-33,2-56-20-567-530c-293-292-536-532-540-532s-7,16-7,35
		c0,25-4,35-15,35c-19,0-290-31-291-33c-1-1-11-90-23-197l-22-195l-174-175l-175-175l-757,42c-2545,142-3415,191-3418,195
		c-2,1-9,102-17,223c-9,154-13,445-12,968C6215.6,6324,6213.6,6660,6210.6,6660z"/>
</g>
</svg>
