<svg id="Layer_1" data-name="Layer 1" xmlns="http://www.w3.org/2000/svg" viewBox="0 0 225 225"><path d="M420,339v17a32.43,32.43,0,0,0-.85,3.83c-4.53,45.26-38.23,84.77-82.24,96.11C330.05,457.74,323,458.71,316,460H299a19,19,0,0,0-2.84-.79c-47.56-6.23-79.37-32.15-95.51-77.12-2.87-8-3.82-16.7-5.65-25.09V338a30,30,0,0,0,.84-3.33C203,287,229.46,255.26,275.24,240c7.63-2.54,15.82-3.36,23.76-5h17c2.6.39,5.23.7,7.81,1.18,46.49,8.68,77.29,35.35,91.66,80.48C417.77,323.9,418.53,331.59,420,339Zm-29.39,8.73c-.09-45.93-37.51-83.45-83.15-83.38s-83.38,37.87-83.08,82.91c.3,46.17,37.39,83.39,83.11,83.4C352.91,430.71,390.69,393,390.61,347.77Z" transform="translate(-195 -235.04)"/><path d="M307.67,275a72.46,72.46,0,0,1,72.39,72.88c0,40-32.67,72.35-73,72.26C267,420,234.92,387.52,234.93,347,235,307.25,267.58,274.94,307.67,275ZM249.34,336.3c-3.25,22.89,3.26,41.16,20,56.41,6.47-10.51,12.65-20.53,18.81-30.57,4.37-7.1,2.11-13.09-5.95-15.63C271.47,343.13,260.72,339.83,249.34,336.3Zm112-11.67c-5.22-17.83-30-36.25-47.32-35.14,0,9.44.24,18.91-.09,28.37-.2,6-.39,11.57,6.53,14.12,1.67.62,3.48,2.38,4.85,2C337.38,331.1,349.35,327.81,361.36,324.63Zm-107.27-1c9,2.79,18.3,4.91,26.94,8.58,7.25,3.07,12.75,2,17.94-3.27.73-.75,1.64-1.8,1.65-2.71.11-12.29.07-24.57.07-36.83C283.59,288.69,259,306.86,254.09,323.65Zm111.66,13.81c-12.66,3.35-24.85,6.52-37,9.86-2.42.66-5,8.93-3.58,11.18,7,11.12,14,22.19,21.23,33.62C362.19,377.09,368.82,359.34,365.75,337.46Zm-30.51,62.28c-7.09-11.24-14-22.17-20.91-33a3.2,3.2,0,0,0-2.28-1.45c-5.77.49-12.43-.81-14.52,7.34-.56,2.15-2.34,4-3.56,6l-13.33,21.76C299.25,408.92,317.05,408.75,335.24,399.74Zm-27.8-63.69A10.19,10.19,0,0,0,297,346.41a10.46,10.46,0,1,0,20.91-.1A10.23,10.23,0,0,0,307.44,336.05Z" transform="translate(-195 -235.04)"/></svg>