<svg id="Layer_1" data-name="Layer 1" xmlns="http://www.w3.org/2000/svg" viewBox="0 0 411.49 124.87"><path d="M501.5,422l-11.16,5.5v34.1l5.31.5c.17,3.45.35,6.86.53,10.47l4.41.45c1.33,2.6,3,4.68,3.37,7,.27,1.64-.63,4.41-1.92,5.22a33.82,33.82,0,0,1-18.7,5.59q-166.83-.33-333.66-.27a19.43,19.43,0,0,1-9.69-2.8c-14.44-8.94-28.67-18.25-43-27.45-1.22-.79-2.38-1.66-4.51-3.15,2.75-.13,4.48-.28,6.2-.28,27.51,0,55-.05,82.54.08,3.18,0,5.18-.87,7-3.51,4.14-6.05,8.45-12,13.08-17.68a9.09,9.09,0,0,1,6.06-3c11.83-.29,23.68-.26,35.51-.07a7.68,7.68,0,0,0,7-3.54q10.11-13.67,20.64-27c1.17-1.48,3.46-2,5-3.24,2.57-2,5.41-3.86,7.37-6.38,3.82-4.94,8.38-7.27,14.61-6.2a33.93,33.93,0,0,0,3.5,0c7.61.5,15,.36,20.56-6.13.68-.79,2-1,3.37-1.65-2.32-4-3.15-8.24,1.17-11.28,1.61-1.14,5.21-1.8,6.34-.84,3.75,3.21,4.63,7.54,1.21,12.4h10.08c.13-2.55.24-4.83.41-8.15l6.22,2.32L347.15,379c4.38,0,7.32-.08,10.25,0,3.49.12,6.7-.33,10.06,2.59,2.16,1.88,7,.5,10.6,1,1.86.25,3.61,1.35,5.41,2.07l-.47,1.85H370.94c4.23,4.57,7.43,8.05,10.69,11.48a2.36,2.36,0,0,0,1.74.76c5.76-1.24,8.26,3.16,11.35,6.49,5.67,6.11,11.15,12.41,17,18.3a13.09,13.09,0,0,0,6.75,3,34.08,34.08,0,0,0,9,.07c5.22-.5,9.61,1,14.08,3.75,3.06,1.86,7.08,2.15,11.26,3.3v14.72h22.28v13h12V419.56l13.6,1.18ZM336.68,456.58l-.44,1.8H99.91l-.19,1.38c9.37,6,18.66,12.11,28.15,17.9a14.86,14.86,0,0,0,7.4,2.11q179.31.15,358.63.09h6.17c-.11-2.07-.18-3.48-.26-5l-5.46-.57-.56-11.08H360.89a13.78,13.78,0,0,1-4-.14,3,3,0,0,1-1.87-2.12c0-.71,1.19-1.74,2-2a15.47,15.47,0,0,1,4-.12H473v-8.74H450.9V434.7H205.17v.9h5.41c28.67,0,57.36.42,86-.25,8.86-.2,12.83,4.89,18.75,11.14H196.25a9.66,9.66,0,0,0,5.44,1.11q60.52,0,121,0a10.78,10.78,0,0,1,6,1.51C331.63,451.23,334.05,454.05,336.68,456.58ZM136.16,482l-.6,1.71c4.5,1.65,9,4.72,13.49,4.73q169,.4,338.08.27c6.06,0,10.26-3.48,14.85-6.71Zm114.09-51.44.48,1.63H439.2l.29-1.42c-2.87-.76-5.71-1.93-8.63-2.19-4.3-.37-8.7.28-13-.24a12.87,12.87,0,0,1-7.18-3.22c-6.68-6.75-13.07-13.8-19.32-21a9.64,9.64,0,0,0-8.2-3.5c-34.68.36-69.35.71-104,.63-5.23,0-8.27,1.25-10,6.58h5.18c12.67,0,25.34,0,38,.05,1.53,0,3.74.28,4.46,1.28,4.42,6.17,8.5,12.58,13.24,19.74h-5.82c-22.68,0-45.35,0-68,.07C254.21,429,252.23,430,250.25,430.54Zm76.28-3.72c-3.69-5.56-6.75-10.5-10.21-15.14-.86-1.15-3-1.82-4.62-1.84-13.84-.14-27.68-.11-41.51,0-1.38,0-3.3.25-4.05,1.14-4.08,4.95-7.88,10.13-12.27,15.87Zm5.75,28.84c-3.12-5.43-7.3-6.65-12.83-6.62q-60.18.33-120.37,0c-5.22,0-7.83,2-9.72,6.63Zm-51.65-58.79.09,1.55h98.56c-4.65-5.25-8.67-10.13-13.12-14.59a10.19,10.19,0,0,0-6.25-2.81c-10-.29-20,.32-30-.3-6.71-.41-10.6,3.19-15.3,7.47,7.29,1.49,16.68-3.22,19.14,8.51-9,0-18,0-26.89,0C298.12,396.76,289.35,396.48,280.63,396.87Zm29.54,47.24c-3.47-4.83-7.19-7.1-13.12-7q-44.49.49-89,0c-5.46-.05-8.18,2.13-10.12,7ZM330,394.69l.91-1.67c-1.92-.92-3.83-2.57-5.77-2.62-11.44-.24-22.89-.27-34.33,0-2.24.06-4.44,1.89-6.65,2.91l.64,1.34Zm29.86,66.59-.13.09h111v-.09Zm-23.79-88.22c-3-2.4-4.76-4.92-6.6-5-1.42,0-3.74,2.83-4.2,4.75-.66,2.81,1.13,5.58,4.3,5.17C331.43,377.77,333,375.47,336.06,373.06Z" transform="translate(-92.52 -365.88)"/><path d="M427.44,439.21c1.29,1.78,3.69,3.64,3.56,5.31s-2.66,3.38-4.14,5.05c-1.63-1.53-4.3-2.89-4.58-4.63s1.93-3.75,3.05-5.65Zm3.07,5.33c-1.74-1.22-2.88-2.63-3.86-2.52s-1.9,1.67-2.84,2.6c1,1,1.91,2.55,3.11,2.85C427.66,447.65,428.87,446,430.51,444.54Z" transform="translate(-92.52 -365.88)"/><path d="M418.33,445c-3.32,2.15-5.35,4.49-7,4.23s-4.26-3.06-4.2-4.66,2.81-4.18,4.54-4.32S415.19,442.64,418.33,445Zm-6.51-4.35c-1.5,1.72-3.21,2.89-3.05,3.68.25,1.24,1.76,2.22,2.74,3.32.93-.95,2.45-1.81,2.61-2.88S413,442.6,411.82,440.68Z" transform="translate(-92.52 -365.88)"/><path d="M386.55,446.49c-1.87,1.17-3.89,3.44-5.57,3.21s-3.18-2.89-4.75-4.48c1.64-1.52,3.18-4.09,4.95-4.26s3.6,2.19,5.41,3.43Zm-1.45-.87c-1.7-1.48-2.84-3.16-3.66-3-1.21.22-2.2,1.73-3.28,2.68.93.94,1.77,2.5,2.8,2.64S383.18,446.76,385.1,445.62Z" transform="translate(-92.52 -365.88)"/><path d="M389.31,444.7c3.43-2.13,5.52-4.44,7.17-4.16s4.31,3.1,4.24,4.71-2.92,4.12-4.69,4.24S392.51,447.12,389.31,444.7Zm7.2,4.35c1.21-1.86,2.57-3,2.45-4s-1.65-2-2.57-3c-1,1.07-2.56,2-2.88,3.25C393.32,446.07,395,447.3,396.51,449.05Z" transform="translate(-92.52 -365.88)"/><path d="M365.69,438.6c2.31,3.29,4.71,5.2,4.54,6.85s-2.79,3.26-4.34,4.87c-1.61-1.55-4.3-3-4.52-4.7S363.49,442,365.69,438.6Zm4.1,7c-1.69-1.29-2.75-2.72-3.77-2.7s-2,1.5-3,2.33c1,1.09,1.77,2.71,2.95,3.06C366.72,448.52,368,446.91,369.79,445.61Z" transform="translate(-92.52 -365.88)"/><path d="M337.53,428.68c4.06-12,15.75-20,29.53-20.76,16.42-.87,34.11,8.18,40.1,20.76Zm67-1.78c-11.41-13.29-24.78-18.84-41-16.71-10.4,1.37-18.34,6.72-23.59,16.71Z" transform="translate(-92.52 -365.88)"/></svg>